<svg xmlns="http://www.w3.org/2000/svg" viewBox="0 0 200 44" fill="none">
  <defs>
    <linearGradient id="logoGrad" x1="0" y1="0" x2="1" y2="0">
      <stop offset="0%" stop-color="#00D4AA"/>
      <stop offset="100%" stop-color="#00A888"/>
    </linearGradient>
  </defs>

  <!-- Tree icon (from favicon) -->
  <g transform="translate(4, 4) scale(0.55)">
    <circle cx="32" cy="32" r="30" fill="#0A0E17" stroke="#1E2A45" stroke-width="1.5"/>
    <circle cx="32" cy="32" r="30" fill="none" stroke="#00D4AA" stroke-width="0.5" opacity="0.3"/>
    <circle cx="14" cy="18" r="1" fill="#8892A8" opacity="0.6"/>
    <circle cx="48" cy="14" r="0.8" fill="#8892A8" opacity="0.5"/>
    <circle cx="50" cy="38" r="1.2" fill="#8892A8" opacity="0.4"/>
    <circle cx="12" cy="44" r="0.7" fill="#8892A8" opacity="0.5"/>
    <circle cx="44" cy="50" r="0.9" fill="#8892A8" opacity="0.3"/>
    <polygon points="32,8 33.5,13 38,13 34.5,16 35.5,21 32,18 28.5,21 29.5,16 26,13 30.5,13" fill="#FFD93D" opacity="0.9"/>
    <polygon points="32,14 22,30 42,30" fill="url(#logoGrad)" opacity="0.95"/>
    <polygon points="32,22 20,40 44,40" fill="url(#logoGrad)" opacity="0.85"/>
    <polygon points="32,30 18,50 46,50" fill="url(#logoGrad)" opacity="0.75"/>
    <rect x="29" y="48" width="6" height="8" rx="1" fill="#1E2A45"/>
  </g>

  <!-- Dark Forest text -->
  <text x="50" y="28" font-family="system-ui, -apple-system, sans-serif" font-size="22" font-weight="700" fill="#E8ECF1" letter-spacing="1">Dark Forest</text>
  <text x="50" y="41" font-family="system-ui, -apple-system, sans-serif" font-size="12" font-weight="400" fill="#6B7280" letter-spacing="2">DOCS</text>
</svg>
